# xmcd
#
# Track frame offsets: 
#        150
#        12253
#        23777
#        37062
#        51531
#        74629
#        94810
#        112394
#        127155
#        141617
#        153666
#
# Disc length: 2241 seconds
#
# Revision: 0
# Processed by: cddbd v1.5.2PL0 Copyright (c) Steve Scherf et al.
# Submitted via: ExactAudioCopy v0.99pb4
#
DISCID=b308bf0b
DTITLE=Skin 'n' Bone - Destination: The Blues
DYEAR=1999
DGENRE=Blues
TTITLE0=Rockin' Cajun Lover
TTITLE1=Destination: The Blues
TTITLE2=On Through The Night
TTITLE3=7th Heaven
TTITLE4=Dusty Roads
TTITLE5=Dark Of The Red Light
TTITLE6=Walking Shoes
TTITLE7=Jackpot Winner
TTITLE8=I'm Gonna Call You
TTITLE9=Lady Doctor
TTITLE10=7th Heaven Revisited
EXTD=
EXTT0=
EXTT1=
EXTT2=
EXTT3=
EXTT4=
EXTT5=
EXTT6=
EXTT7=
EXTT8=
EXTT9=
EXTT10=
PLAYORDER=
